<svg width="345" height="14" viewBox="0 0 345 14" fill="none" xmlns="http://www.w3.org/2000/svg">
<g clip-path="url(#clip0_796_22043)">
<path d="M0 6.501L345 6.50003" stroke="#DEBC90"/>
<path fill-rule="evenodd" clip-rule="evenodd" d="M166 7.01971L167.416 4.33892H167.56L169.144 1.34068H169.288L169.996 0H170.14L166.432 7.01971H166.576L167.992 4.33892H168.136L169.72 1.34068H169.864L170.572 0H170.716L167.008 7.01971H167.152L168.568 4.33892H168.712L170.295 1.34068H170.439L171.148 0H171.292L175 7.01971L173.584 9.70108H173.44L171.856 12.6987H171.712L171.004 14.04H170.86L174.568 7.01971H174.424L173.008 9.70108H172.864L171.28 12.6987H171.136L170.428 14.04H170.284L173.992 7.01971H173.848L172.432 9.70108H172.288L170.705 12.6987H170.56L169.852 14.04H169.708L166 7.01971Z" fill="#DEBC90"/>
</g>
<defs>
<clipPath id="clip0_796_22043">
<rect width="345" height="14" fill="white"/>
</clipPath>
</defs>
</svg>
