<svg width="163" height="39" viewBox="0 0 163 39" fill="none" xmlns="http://www.w3.org/2000/svg">
<path d="M63.0413 26.6129H59.9492V31.2013H60.6414V27.2094H63.0413V26.6129ZM64.6103 28.9072C64.6103 28.4483 64.7949 28.0353 65.1179 27.6683C65.441 27.3012 65.8564 27.1177 66.2717 27.1177C66.687 27.1177 67.0101 27.3012 67.3331 27.6224C67.6562 27.9894 67.7946 28.4024 67.7946 28.8613C67.7946 29.366 67.6562 29.7789 67.3331 30.1001C67.0101 30.4672 66.6409 30.6049 66.2717 30.6049C65.8564 30.6049 65.4871 30.4213 65.1179 30.0542C64.7949 29.7789 64.6103 29.366 64.6103 28.9072ZM64.6103 30.4672L64.6564 30.559C64.7026 30.6049 64.7949 30.6966 64.8872 30.7425C64.9795 30.8343 65.0718 30.8802 65.2102 30.9719C65.3487 31.0637 65.4871 31.1096 65.6717 31.1555C65.8564 31.2013 66.0409 31.2472 66.2255 31.2472C66.8254 31.2472 67.3331 31.0178 67.7946 30.559C68.2561 30.1001 68.4407 29.5036 68.4407 28.8613C68.4407 28.2188 68.21 27.6224 67.7485 27.1636C67.287 26.7046 66.7793 26.4752 66.1794 26.4752C65.9948 26.4752 65.8101 26.5211 65.5794 26.567C65.3949 26.6129 65.2564 26.7046 65.1179 26.7505C64.9795 26.8423 64.8872 26.8882 64.7949 26.98C64.7026 27.0718 64.6103 27.1177 64.6103 27.1636C64.5641 27.2094 64.5641 27.2553 64.518 27.2553V26.6129H63.8258V33.2661H64.518V30.4672H64.6103ZM70.702 31.8897C70.5174 32.3944 70.2405 32.6238 69.8252 32.6238C69.6867 32.6238 69.5021 32.5779 69.3637 32.532V33.1743H69.4098C69.456 33.1743 69.5483 33.2202 69.6406 33.2202C69.7328 33.2202 69.8252 33.2661 69.9636 33.2661C70.2866 33.2661 70.5636 33.1743 70.7943 32.9449C71.0251 32.7614 71.2097 32.3944 71.3942 31.8897L73.5171 26.6129H72.7787L71.3019 30.3755L69.779 26.6129H69.0406L70.9328 31.2472L70.702 31.8897ZM77.7629 31.2013H78.4551V26.6129H74.4401V31.2013H75.1324V27.2094H77.809V31.2013H77.7629ZM83.3472 31.2013H84.0389V26.6129H80.0242V31.2013H80.7164V27.2094H83.3934V31.2013H83.3472ZM86.5772 28.5859C86.162 28.6777 85.793 28.8154 85.5619 29.0448C85.3316 29.2742 85.1929 29.5954 85.1929 29.9624C85.1929 30.3296 85.3316 30.6049 85.6543 30.8802C85.9771 31.1555 86.3469 31.2931 86.8083 31.2931C86.9924 31.2931 87.1773 31.2472 87.3622 31.2013C87.5463 31.1554 87.6849 31.1096 87.7774 31.0178C87.8698 30.9719 88.0077 30.8802 88.1001 30.7884C88.1926 30.6966 88.2388 30.6508 88.285 30.6049C88.3313 30.559 88.3313 30.559 88.3313 30.5131V31.2013H89.023V28.2647C89.023 27.76 88.8389 27.3471 88.5154 26.98C88.1464 26.6588 87.7312 26.4752 87.1773 26.4752C86.947 26.4752 86.7621 26.5211 86.5772 26.567C86.3931 26.6129 86.2082 26.7046 86.1158 26.7964C85.9771 26.8882 85.8855 26.98 85.7468 27.0718C85.6543 27.1636 85.5619 27.2553 85.5157 27.3012C85.4694 27.3471 85.4694 27.393 85.424 27.393L85.8392 27.8059L85.9771 27.6224C86.0695 27.4847 86.2544 27.393 86.4393 27.3012C86.6696 27.2094 86.9008 27.1177 87.1311 27.1177C87.4538 27.1177 87.7312 27.2094 87.9615 27.4388C88.1926 27.6683 88.285 27.9435 88.285 28.2647L86.5772 28.5859ZM86.8545 30.6966C86.531 30.6966 86.3007 30.6049 86.162 30.5131C85.9771 30.3755 85.8855 30.1919 85.8855 30.0083C85.8855 29.5495 86.162 29.3201 86.7621 29.1824L88.3775 28.9072V29.1824C88.3775 29.6413 88.2388 30.0083 87.9615 30.2837C87.6387 30.559 87.316 30.6966 86.8545 30.6966ZM93.0842 29.9165L94.0071 28.953L95.6687 31.2013H96.4537L94.4693 28.4483L96.2688 26.567H95.4384L93.1304 28.9989V26.6129H92.4387V31.2013H93.1304V29.9165H93.0842ZM101.023 28.9072C101.023 29.4119 100.838 29.8248 100.515 30.1919C100.191 30.5131 99.7761 30.6966 99.3147 30.6966C98.8533 30.6966 98.4381 30.5131 98.1145 30.1919C97.7917 29.8248 97.6068 29.4119 97.6068 28.953C97.6068 28.4482 97.7917 28.0353 98.1145 27.6683C98.4381 27.3471 98.8533 27.1636 99.3147 27.1636C99.7761 27.1636 100.191 27.3471 100.515 27.6683C100.884 27.9894 101.023 28.4024 101.023 28.9072ZM96.9613 28.9072C96.9613 29.5954 97.1916 30.146 97.6531 30.6049C98.1145 31.0637 98.6684 31.2931 99.3147 31.2931C99.961 31.2931 100.515 31.0637 100.976 30.6049C101.438 30.146 101.668 29.5495 101.668 28.9072C101.668 28.2188 101.438 27.6683 100.976 27.2094C100.515 26.7505 99.961 26.5211 99.3147 26.5211C98.6684 26.5211 98.1145 26.7505 97.6531 27.2094C97.1916 27.6683 96.9613 28.2188 96.9613 28.9072ZM106.976 27.8059V31.2013H107.667V26.6129H107.114L105.268 28.9072L103.422 26.6129H102.914V31.2013H103.606V27.8059L105.314 29.9165L106.976 27.8059ZM112.56 31.2013H113.252V26.6129H109.237V31.2013H109.929V27.2094H112.605V31.2013H112.56ZM115.79 28.5859C115.375 28.6777 115.006 28.8154 114.775 29.0448C114.544 29.2742 114.406 29.5954 114.406 29.9624C114.406 30.3296 114.544 30.6049 114.867 30.8802C115.19 31.1555 115.56 31.2931 116.021 31.2931C116.205 31.2931 116.39 31.2472 116.575 31.2013C116.759 31.1554 116.898 31.1096 116.99 31.0178C117.082 30.9719 117.22 30.8802 117.313 30.7884C117.405 30.6966 117.451 30.6508 117.498 30.6049C117.544 30.559 117.544 30.559 117.544 30.5131V31.2013H118.236V28.2647C118.236 27.76 118.052 27.3471 117.728 26.98C117.359 26.6588 116.944 26.4752 116.39 26.4752C116.159 26.4752 115.975 26.5211 115.79 26.567C115.606 26.6129 115.421 26.7046 115.328 26.7964C115.19 26.8882 115.098 26.98 114.959 27.0718C114.867 27.1636 114.775 27.2553 114.728 27.3012C114.682 27.3471 114.682 27.393 114.636 27.393L115.052 27.8059L115.19 27.6224C115.282 27.4847 115.467 27.393 115.651 27.3012C115.882 27.2094 116.113 27.1177 116.344 27.1177C116.666 27.1177 116.944 27.2094 117.174 27.4388C117.405 27.6683 117.498 27.9435 117.498 28.2647L115.79 28.5859ZM116.067 30.6966C115.744 30.6966 115.513 30.6049 115.375 30.5131C115.19 30.3755 115.098 30.1919 115.098 30.0083C115.098 29.5495 115.375 29.3201 115.975 29.1824L117.59 28.9072V29.1824C117.59 29.6413 117.451 30.0083 117.174 30.2837C116.898 30.559 116.529 30.6966 116.067 30.6966ZM123.128 31.2013H123.82V26.6129H123.128V28.5859H120.451V26.6129H119.759V31.2013H120.451V29.1824H123.128V31.2013ZM128.85 26.6129L126.035 30.0542V26.6129H125.343V31.2013H125.943L128.758 27.76V31.2013H129.45V26.6129H128.85ZM133.004 25.2822C132.773 25.2822 132.589 25.1904 132.45 25.0528C132.311 24.9152 132.265 24.7316 132.265 24.4563H131.711C131.711 24.8234 131.85 25.1446 132.081 25.374C132.311 25.6035 132.635 25.7411 133.004 25.7411C133.373 25.7411 133.696 25.6035 133.927 25.374C134.158 25.1446 134.296 24.8234 134.296 24.4563H133.742C133.742 24.7316 133.696 24.9152 133.558 25.0528C133.465 25.2363 133.234 25.2822 133.004 25.2822ZM134.48 26.6129L131.666 30.0542V26.6129H130.973V31.2013H131.573L134.388 27.76V31.2013H135.081V26.6129H134.48Z" fill="#2B3640"/>
<path d="M48.7799 12.71V0H0V38.4511H24.8283V25.6953H12.7834V12.71H48.7799Z" fill="#2B3640"/>
<path d="M48.6414 25.6958V38.4517H36.6426V25.6958H48.6414Z" fill="#2B3640"/>
<path d="M59.9492 11.1495C59.9492 6.65288 62.349 4.40454 67.1024 4.40454C69.0406 4.40454 70.1944 4.77162 71.1635 5.18458L70.3328 7.43292C69.0868 7.11173 68.5791 6.97407 67.1485 6.97407C64.7949 6.92819 63.1335 8.25886 63.1335 10.966C63.1335 13.6732 64.8872 15.1415 67.5177 15.1415C68.8099 15.1415 69.5483 15.0497 70.5174 14.7745L71.1635 17.1145C69.9175 17.5734 68.8099 17.757 67.1485 17.757C62.3951 17.7111 59.9492 15.3709 59.9492 11.1495Z" fill="#2B3640"/>
<path d="M76.0546 7.02068H71.9473V4.58881H83.2541V7.02068H79.1927V17.5282H76.0546V7.02068Z" fill="#2B3640"/>
<path d="M84.8223 4.58887H89.8988C92.806 4.58887 94.9291 6.28659 94.9291 9.17729C94.9291 11.7009 92.8522 13.8575 88.9297 13.8575H87.9606V17.5283H84.8223V4.58887ZM88.006 11.4715H89.0676C91.0057 11.4715 91.6983 10.4621 91.6983 9.26909C91.6983 7.98432 91.1444 7.02074 89.4836 7.02074H87.9606V11.4715H88.006Z" fill="#2B3640"/>
<path d="M96.0371 11.0128C96.0371 6.65372 98.7594 4.3595 103.19 4.3595C107.943 4.3595 109.974 6.97491 109.974 11.0587C109.974 15.3717 107.482 17.7578 102.867 17.7578C98.298 17.7578 96.0371 15.1882 96.0371 11.0128ZM106.836 11.0587C106.836 8.62672 105.728 6.83725 103.098 6.83725C100.329 6.83725 99.2671 8.62672 99.2671 11.0128C99.2671 13.3528 100.329 15.28 102.959 15.28C105.82 15.28 106.836 13.4446 106.836 11.0587Z" fill="#2B3640"/>
<path d="M112.235 4.58881H115.374V11.4256L115.281 13.1233L116.481 11.288L120.865 4.58881H124.003V17.5282H120.865V10.6914L120.958 8.94781L119.758 10.7832L115.374 17.5282H112.235V4.58881Z" fill="#2B3640"/>
<path d="M129.68 7.02074H125.572V4.58887H136.925V7.02074H132.817V17.5283H129.68V7.02074Z" fill="#2B3640"/>
<path d="M137.662 17.069L138.308 14.7289C139.324 15.0042 140.062 15.096 141.308 15.096C143.523 15.096 145.092 14.0865 145.553 12.1135H139.6V9.86515H145.6C145.231 7.89208 143.708 6.97439 141.677 6.97439C140.247 6.97439 139.739 7.06616 138.493 7.43324L137.662 5.1849C138.631 4.72605 139.785 4.45074 141.723 4.45074C146.477 4.45074 148.877 6.6532 148.877 11.1498C148.877 15.4171 146.431 17.7114 141.677 17.7114C140.015 17.7114 138.909 17.5278 137.662 17.069Z" fill="#2B3640"/>
<path d="M151.14 4.58881H154.231V10.1408L158.707 4.58881H162.722L157.416 10.6455L163 17.5282H158.985L154.231 11.0126V17.5282H151.14V4.58881Z" fill="#2B3640"/>
</svg>
