<svg width="29" height="19" viewBox="0 0 29 19" fill="none" xmlns="http://www.w3.org/2000/svg">
<path d="M15.3547 18.3221C5.73151 18.3221 0.244634 11.7378 0.0195312 0.764069H4.85924C5.014 8.81149 8.55937 12.2162 11.3732 12.9196V0.764069H15.9174V7.70005C18.689 7.4046 21.6153 4.23909 22.6002 0.75H27.1303C26.761 2.55612 26.0231 4.26666 24.9628 5.77476C23.9026 7.28285 22.5427 8.5561 20.9682 9.51494C22.7253 10.3895 24.277 11.6266 25.5211 13.1447C26.7651 14.6628 27.6733 16.4274 28.1855 18.3221H23.191C22.1218 14.9878 19.4487 12.3991 15.9174 12.0473V18.3221H15.3687H15.3547Z" fill="white"/>
</svg>
